<?xml version="1.0" standalone="no"?><!DOCTYPE svg PUBLIC "-//W3C//DTD SVG 1.1//EN" 	"http://www.w3.org/Graphics/SVG/1.1/DTD/svg11.dtd"><svg width="1920" height="959" version="1.1"	xmlns="http://www.w3.org/2000/svg"><title>Krona (snapshot) - Root</title><defs>	<style type="text/css">	text {font-size: 11px; font-family: sans-serif; dominant-baseline:central}	path {stroke-width:0.27499999999999997;}	path.wedge {stroke:none}	path.line {fill:none;stroke:black;}	line {stroke:black;stroke-width:0.27499999999999997;}	line.tick {stroke-width:0.5499999999999999;}	line.pattern {stroke-width:0.18333333333333332;}	circle {fill:none;stroke:black;stroke-width:0.27499999999999997;}	rect {stroke:black;stroke-width:0.27499999999999997;}	.highlight {stroke:black;stroke-width:1.375;}	.searchHighlight {fill:rgb(255, 255, 100);stroke:none;}	</style><pattern id="hiddenPattern" patternUnits="userSpaceOnUse" x="0" y="0" width="6.6" height="6.6"><line class="pattern" x1="0" y1="0" x2="3.3" y2="3.3"/><line class="pattern" x1="3.3" y1="6.6" x2="6.6" y2="3.3"/></pattern></defs><path class="wedge" fill="rgb(220,220,220)" d=" M 885.0009422743505,567.4999999949553 L 885.004107459555,863.0999999780094 A 383.6,383.6 0 0,1 885.0000000000001,863.1 L 885,567.5 A 88,88 0 0 0 885.0009422743505,567.4999999949553 Z "/><path class="wedge" fill="rgb(207,111,111)" d=" M 885,567.5 L 885,863.1 A 383.6,383.6 0 1,1 889.4619696068302,863.0740486884217 L 886.0236009525574,567.4940466229956 A 88,88 0 1 0 885,567.5 Z "/><path class="wedge" fill="rgb(210,121,121)" d=" M 885,629.033167821654 L 885,863.1 A 383.6,383.6 0 1,1 889.5701252121844,863.0727753054757 L 886.7815049539091,629.0225552178605 A 149.53316782165402,149.53316782165402 0 1 0 885,629.033167821654 Z "/><path class="wedge" fill="rgb(213,130,130)" d=" M 885,673.4016741848566 L 885,863.1 A 383.6,383.6 0 1,1 889.6262564596262,863.0721024151389 L 887.3384746421534,673.3875725466651 A 193.90167418485663,193.90167418485663 0 1 0 885,673.4016741848566 Z "/><path class="wedge" fill="rgb(213,130,130)" d=" M 885,673.4016741848566 L 885,863.1 A 383.6,383.6 0 1,1 889.6262564596262,863.0721024151389 L 887.3384746421534,673.3875725466651 A 193.90167418485663,193.90167418485663 0 1 0 885,673.4016741848566 Z "/><path class="wedge" fill="rgb(216,140,140)" d=" M 885,706.8752519056472 L 885,863.1 A 383.6,383.6 0 1,1 889.745363898947,863.070647366905 L 887.8127693219683,706.8578534115281 A 227.37525190564725,227.37525190564725 0 1 0 885,706.8752519056472 Z "/><path class="wedge" fill="rgb(219,149,149)" d=" M 885,733.013201502104 L 885,863.1 A 383.6,383.6 0 1,1 889.765899618421,863.070392758392 L 888.1496831864014,732.9936346965575 A 253.51320150210404,253.51320150210404 0 1 0 885,733.013201502104 Z "/><path class="wedge" fill="rgb(223,159,159)" d=" M 885,753.9814747059414 L 885,863.1 A 383.6,383.6 0 1,1 889.7768519965584,863.0702565176332 L 888.4180327957961,753.9601920289265 A 274.4814747059414,274.4814747059414 0 1 0 885,753.9814747059414 Z "/><path class="wedge" fill="rgb(223,159,159)" d=" M 888.8194721105981,771.1468982836411 L 890.0232794580833,863.0671084223542 A 383.6,383.6 0 0,1 889.7768519965584,863.0702565176332 L 888.6320999318384,771.1492919514075 A 291.6719075359713,291.6719075359713 0 0 0 888.8194721105981,771.1468982836411 Z "/><path class="wedge" fill="rgb(226,168,168)" d=" M 885,771.1719075359713 L 885,863.1 A 383.6,383.6 0 1,1 890.2313721483562,863.0643267373093 L 888.977696281391,771.1447832174701 A 291.6719075359713,291.6719075359713 0 1 0 885,771.1719075359713 Z "/><path class="wedge" fill="rgb(229,178,178)" d=" M 885,785.5189279046558 L 885,863.1 A 383.6,383.6 0 1,1 1200.2848493503448,698.0049742457373 L 1136.5201553252698,653.8134983329379 A 306.01892790465587,306.01892790465587 0 1 0 885,785.5189279046558 Z "/><path class="wedge" fill="rgb(229,178,178)" d=" M 970.8078194966552,173.11629798561307 L 988.4528270267537,110.1133833228759 A 383.6,383.6 0 0,1 1200.2848493503448,698.0049742457373 L 1146.5095809425118,660.73656866671 A 318.17283785202534,318.17283785202534 0 0 0 970.8078194966552,173.11629798561307 Z "/><path class="wedge" fill="rgb(229,178,178)" d=" M 885,797.6728378520254 L 885,863.1 A 383.6,383.6 0 0,1 505.47273346377693,423.75043537799877 L 570.2052465170696,433.2591314264937 A 318.17283785202534,318.17283785202534 0 0 0 885,797.6728378520254 Z "/><path class="wedge" fill="rgb(229,184,178)" d=" M 570.2052465170696,433.2591314264937 L 505.47273346377693,423.75043537799877 A 383.6,383.6 0 0,1 988.4528270267537,110.1133833228759 L 970.8078194966552,173.11629798561307 A 318.17283785202534,318.17283785202534 0 0 0 570.2052465170696,433.2591314264937 Z "/><path class="wedge" fill="rgb(229,198,178)" d=" M 1136.5201553252698,653.8134983329379 L 1200.2848493503448,698.0049742457373 A 383.6,383.6 0 0,1 890.2313721483562,863.0643267373093 L 889.1733547870444,785.4904693707574 A 306.01892790465587,306.01892790465587 0 0 0 1136.5201553252698,653.8134983329379 Z "/><path class="wedge" fill="rgb(226,195,168)" d=" M 888.977696281391,771.1447832174701 L 890.2313721483562,863.0643267373093 A 383.6,383.6 0 0,1 890.0232794580833,863.0671084223542 L 888.8194721105981,771.1468982836411 A 291.6719075359713,291.6719075359713 0 0 0 888.977696281391,771.1447832174701 Z "/><path class="wedge" fill="url(#hiddenPattern)" d=" M 888.977696281391,771.1447832174701 L 890.2313721483562,863.0643267373093 A 383.6,383.6 0 0,1 890.0232794580833,863.0671084223542 L 888.8194721105981,771.1468982836411 A 291.6719075359713,291.6719075359713 0 0 0 888.977696281391,771.1447832174701 Z "/><path class="wedge" fill="rgb(219,183,149)" d=" M 888.4180327957961,753.9601920289265 L 889.7768519965584,863.0702565176332 A 383.6,383.6 0 0,1 889.765899618421,863.070392758392 L 888.4101959217015,753.9602895147566 A 274.4814747059414,274.4814747059414 0 0 0 888.4180327957961,753.9601920289265 Z "/><path class="wedge" fill="url(#hiddenPattern)" d=" M 888.4180327957961,753.9601920289265 L 889.7768519965584,863.0702565176332 A 383.6,383.6 0 0,1 889.765899618421,863.070392758392 L 888.4101959217015,753.9602895147566 A 274.4814747059414,274.4814747059414 0 0 0 888.4180327957961,753.9601920289265 Z "/><path class="wedge" fill="rgb(216,176,140)" d=" M 888.1496831864014,732.9936346965575 L 889.765899618421,863.070392758392 A 383.6,383.6 0 0,1 889.745363898947,863.070647366905 L 888.1361115597355,732.9938029619882 A 253.51320150210404,253.51320150210404 0 0 0 888.1496831864014,732.9936346965575 Z "/><path class="wedge" fill="url(#hiddenPattern)" d=" M 888.1496831864014,732.9936346965575 L 889.765899618421,863.070392758392 A 383.6,383.6 0 0,1 889.745363898947,863.070647366905 L 888.1361115597355,732.9938029619882 A 253.51320150210404,253.51320150210404 0 0 0 888.1496831864014,732.9936346965575 Z "/><path class="wedge" fill="rgb(213,170,130)" d=" M 887.8127693219683,706.8578534115281 L 889.745363898947,863.070647366905 A 383.6,383.6 0 0,1 889.6262564596262,863.0721024151389 L 887.7421695200408,706.858715877531 A 227.37525190564725,227.37525190564725 0 0 0 887.8127693219683,706.8578534115281 Z "/><path class="wedge" fill="url(#hiddenPattern)" d=" M 887.8127693219683,706.8578534115281 L 889.745363898947,863.070647366905 A 383.6,383.6 0 0,1 889.6262564596262,863.0721024151389 L 887.7421695200408,706.858715877531 A 227.37525190564725,227.37525190564725 0 0 0 887.8127693219683,706.8578534115281 Z "/><path class="wedge" fill="rgb(210,165,121)" d=" M 887.3384746421534,673.3875725466651 L 889.6262564596262,863.0721024151389 A 383.6,383.6 0 0,1 889.5701252121844,863.0727753054757 L 887.3101014856021,673.3879126784765 A 193.90167418485663,193.90167418485663 0 0 0 887.3384746421534,673.3875725466651 Z "/><path class="wedge" fill="url(#hiddenPattern)" d=" M 887.3384746421534,673.3875725466651 L 889.6262564596262,863.0721024151389 A 383.6,383.6 0 0,1 889.5701252121844,863.0727753054757 L 887.3101014856021,673.3879126784765 A 193.90167418485663,193.90167418485663 0 0 0 887.3384746421534,673.3875725466651 Z "/><path class="wedge" fill="rgb(207,159,111)" d=" M 886.7815049539091,629.0225552178605 L 889.5701252121844,863.0727753054757 A 383.6,383.6 0 0,1 889.4619696068302,863.0740486884217 L 886.739344238877,629.0230516020779 A 149.53316782165402,149.53316782165402 0 0 0 886.7815049539091,629.0225552178605 Z "/><path class="wedge" fill="url(#hiddenPattern)" d=" M 886.7815049539091,629.0225552178605 L 889.5701252121844,863.0727753054757 A 383.6,383.6 0 0,1 889.4619696068302,863.0740486884217 L 886.739344238877,629.0230516020779 A 149.53316782165402,149.53316782165402 0 0 0 886.7815049539091,629.0225552178605 Z "/><path class="wedge" fill="rgb(207,207,111)" d=" M 886.0236009525574,567.4940466229956 L 889.4619696068302,863.0740486884217 A 383.6,383.6 0 0,1 886.5635686077071,863.0968134033559 L 885.3586914428525,567.4992689767865 A 88,88 0 0 0 886.0236009525574,567.4940466229956 Z "/><rect fill="rgb(207,207,111)" x="1883.615" y="775.9483333333334" width="22" height="22"/><path class="line" d="M 888.0127906086836,863.0881686037101 L 888.4431892670669,917.88647840424 A 438.40000000000003,438.40000000000003 0 0,0 1197.522130945243,786.9483333333334 L 1357.65,786.9483333333334 L 1802.3055924479168,786.9483333333334"/><text x="1876.2816666666668" y="786.9483333333334" style="font-color:black;font-weight:normal" text-anchor="end">No hits&#160;&#160;&#160;0.1%</text><path class="wedge" fill="rgb(111,207,111)" d=" M 885.3586914428525,567.4992689767865 L 886.5635686077071,863.0968134033559 A 383.6,383.6 0 0,1 885.2697231552226,863.0999051738928 L 885.0618760105829,567.499978246357 A 88,88 0 0 0 885.3586914428525,567.4992689767865 Z "/><path class="wedge" fill="rgb(111,207,111)" d=" M 885.3586914428525,567.4992689767865 L 886.5635686077071,863.0968134033559 A 383.6,383.6 0 0,1 885.2697231552226,863.0999051738928 L 885.0618760105829,567.499978246357 A 88,88 0 0 0 885.3586914428525,567.4992689767865 Z "/><path class="wedge" fill="rgb(111,207,111)" d=" M 885.3586914428525,567.4992689767865 L 886.5635686077071,863.0968134033559 A 383.6,383.6 0 0,1 885.2697231552226,863.0999051738928 L 885.0618760105829,567.499978246357 A 88,88 0 0 0 885.3586914428525,567.4992689767865 Z "/><path class="wedge" fill="rgb(111,207,111)" d=" M 885.3586914428525,567.4992689767865 L 886.5635686077071,863.0968134033559 A 383.6,383.6 0 0,1 885.2697231552226,863.0999051738928 L 885.0618760105829,567.499978246357 A 88,88 0 0 0 885.3586914428525,567.4992689767865 Z "/><path class="wedge" fill="rgb(111,207,111)" d=" M 885.3586914428525,567.4992689767865 L 886.5635686077071,863.0968134033559 A 383.6,383.6 0 0,1 885.2697231552226,863.0999051738928 L 885.0618760105829,567.499978246357 A 88,88 0 0 0 885.3586914428525,567.4992689767865 Z "/><path class="wedge" fill="rgb(111,207,111)" d=" M 885.3586914428525,567.4992689767865 L 886.5635686077071,863.0968134033559 A 383.6,383.6 0 0,1 885.2697231552226,863.0999051738928 L 885.0618760105829,567.499978246357 A 88,88 0 0 0 885.3586914428525,567.4992689767865 Z "/><path class="wedge" fill="rgb(111,207,111)" d=" M 885.3586914428525,567.4992689767865 L 886.5635686077071,863.0968134033559 A 383.6,383.6 0 0,1 885.2697231552226,863.0999051738928 L 885.0618760105829,567.499978246357 A 88,88 0 0 0 885.3586914428525,567.4992689767865 Z "/><path class="wedge" fill="rgb(111,207,111)" d=" M 885.3586914428525,567.4992689767865 L 886.5635686077071,863.0968134033559 A 383.6,383.6 0 0,1 885.2697231552226,863.0999051738928 L 885.0618760105829,567.499978246357 A 88,88 0 0 0 885.3586914428525,567.4992689767865 Z "/><path class="wedge" fill="rgb(111,207,111)" d=" M 885.3586914428525,567.4992689767865 L 886.5635686077071,863.0968134033559 A 383.6,383.6 0 0,1 885.2697231552226,863.0999051738928 L 885.0618760105829,567.499978246357 A 88,88 0 0 0 885.3586914428525,567.4992689767865 Z "/><path class="wedge" fill="rgb(111,207,111)" d=" M 885.3586914428525,567.4992689767865 L 886.5635686077071,863.0968134033559 A 383.6,383.6 0 0,1 885.2697231552226,863.0999051738928 L 885.0618760105829,567.499978246357 A 88,88 0 0 0 885.3586914428525,567.4992689767865 Z "/><path class="wedge" fill="rgb(111,207,111)" d=" M 885.3586914428525,567.4992689767865 L 886.5635686077071,863.0968134033559 A 383.6,383.6 0 0,1 885.2697231552226,863.0999051738928 L 885.0618760105829,567.499978246357 A 88,88 0 0 0 885.3586914428525,567.4992689767865 Z "/><path class="wedge" fill="rgb(111,207,111)" d=" M 885.3586914428525,567.4992689767865 L 886.5635686077071,863.0968134033559 A 383.6,383.6 0 0,1 885.2697231552226,863.0999051738928 L 885.0618760105829,567.499978246357 A 88,88 0 0 0 885.3586914428525,567.4992689767865 Z "/><path class="wedge" fill="rgb(111,207,111)" d=" M 885.3586914428525,567.4992689767865 L 886.5635686077071,863.0968134033559 A 383.6,383.6 0 0,1 885.2697231552226,863.0999051738928 L 885.0618760105829,567.499978246357 A 88,88 0 0 0 885.3586914428525,567.4992689767865 Z "/><path class="wedge" fill="rgb(111,207,111)" d=" M 885.3586914428525,567.4992689767865 L 886.5635686077071,863.0968134033559 A 383.6,383.6 0 0,1 885.2697231552226,863.0999051738928 L 885.0618760105829,567.499978246357 A 88,88 0 0 0 885.3586914428525,567.4992689767865 Z "/><path class="wedge" fill="rgb(111,207,111)" d=" M 885.3586914428525,567.4992689767865 L 886.5635686077071,863.0968134033559 A 383.6,383.6 0 0,1 885.2697231552226,863.0999051738928 L 885.0618760105829,567.499978246357 A 88,88 0 0 0 885.3586914428525,567.4992689767865 Z "/><path class="wedge" fill="rgb(111,207,111)" d=" M 885.3586914428525,567.4992689767865 L 886.5635686077071,863.0968134033559 A 383.6,383.6 0 0,1 885.2697231552226,863.0999051738928 L 885.0618760105829,567.499978246357 A 88,88 0 0 0 885.3586914428525,567.4992689767865 Z "/><path class="wedge" fill="rgb(111,207,111)" d=" M 885.3586914428525,567.4992689767865 L 886.5635686077071,863.0968134033559 A 383.6,383.6 0 0,1 885.2697231552226,863.0999051738928 L 885.0618760105829,567.499978246357 A 88,88 0 0 0 885.3586914428525,567.4992689767865 Z "/><path class="wedge" fill="rgb(111,207,111)" d=" M 885.3586914428525,567.4992689767865 L 886.5635686077071,863.0968134033559 A 383.6,383.6 0 0,1 885.2697231552226,863.0999051738928 L 885.0618760105829,567.499978246357 A 88,88 0 0 0 885.3586914428525,567.4992689767865 Z "/><path class="wedge" fill="rgb(111,207,111)" d=" M 885.3586914428525,567.4992689767865 L 886.5635686077071,863.0968134033559 A 383.6,383.6 0 0,1 885.2697231552226,863.0999051738928 L 885.0618760105829,567.499978246357 A 88,88 0 0 0 885.3586914428525,567.4992689767865 Z "/><path class="wedge" fill="rgb(111,207,111)" d=" M 885.3586914428525,567.4992689767865 L 886.5635686077071,863.0968134033559 A 383.6,383.6 0 0,1 885.2697231552226,863.0999051738928 L 885.0618760105829,567.499978246357 A 88,88 0 0 0 885.3586914428525,567.4992689767865 Z "/><path class="wedge" fill="rgb(111,207,111)" d=" M 885.3586914428525,567.4992689767865 L 886.5635686077071,863.0968134033559 A 383.6,383.6 0 0,1 885.2697231552226,863.0999051738928 L 885.0618760105829,567.499978246357 A 88,88 0 0 0 885.3586914428525,567.4992689767865 Z "/><path class="wedge" fill="rgb(111,207,111)" d=" M 885.3586914428525,567.4992689767865 L 886.5635686077071,863.0968134033559 A 383.6,383.6 0 0,1 885.2697231552226,863.0999051738928 L 885.0618760105829,567.499978246357 A 88,88 0 0 0 885.3586914428525,567.4992689767865 Z "/><path class="wedge" fill="rgb(111,207,111)" d=" M 885.3586914428525,567.4992689767865 L 886.5635686077071,863.0968134033559 A 383.6,383.6 0 0,1 885.2697231552226,863.0999051738928 L 885.0618760105829,567.499978246357 A 88,88 0 0 0 885.3586914428525,567.4992689767865 Z "/><path class="wedge" fill="rgb(111,207,111)" d=" M 885.3586914428525,567.4992689767865 L 886.5635686077071,863.0968134033559 A 383.6,383.6 0 0,1 885.2697231552226,863.0999051738928 L 885.0618760105829,567.499978246357 A 88,88 0 0 0 885.3586914428525,567.4992689767865 Z "/><path class="wedge" fill="rgb(111,207,111)" d=" M 885.3586914428525,567.4992689767865 L 886.5635686077071,863.0968134033559 A 383.6,383.6 0 0,1 885.2697231552226,863.0999051738928 L 885.0618760105829,567.499978246357 A 88,88 0 0 0 885.3586914428525,567.4992689767865 Z "/><path class="wedge" fill="rgb(111,207,111)" d=" M 885.3586914428525,567.4992689767865 L 886.5635686077071,863.0968134033559 A 383.6,383.6 0 0,1 885.2697231552226,863.0999051738928 L 885.0618760105829,567.499978246357 A 88,88 0 0 0 885.3586914428525,567.4992689767865 Z "/><path class="wedge" fill="rgb(111,207,111)" d=" M 885.3586914428525,567.4992689767865 L 886.5635686077071,863.0968134033559 A 383.6,383.6 0 0,1 885.2697231552226,863.0999051738928 L 885.0618760105829,567.499978246357 A 88,88 0 0 0 885.3586914428525,567.4992689767865 Z "/><path class="wedge" fill="rgb(111,207,111)" d=" M 885.3586914428525,567.4992689767865 L 886.5635686077071,863.0968134033559 A 383.6,383.6 0 0,1 885.2697231552226,863.0999051738928 L 885.0618760105829,567.499978246357 A 88,88 0 0 0 885.3586914428525,567.4992689767865 Z "/><path class="wedge" fill="rgb(111,207,111)" d=" M 885.3586914428525,567.4992689767865 L 886.5635686077071,863.0968134033559 A 383.6,383.6 0 0,1 885.2697231552226,863.0999051738928 L 885.0618760105829,567.499978246357 A 88,88 0 0 0 885.3586914428525,567.4992689767865 Z "/><path class="wedge" fill="rgb(111,207,111)" d=" M 885.3586914428525,567.4992689767865 L 886.5635686077071,863.0968134033559 A 383.6,383.6 0 0,1 885.2697231552226,863.0999051738928 L 885.0618760105829,567.499978246357 A 88,88 0 0 0 885.3586914428525,567.4992689767865 Z "/><rect fill="rgb(111,207,111)" x="1883.615" y="805.2816666666668" width="22" height="22"/><path class="line" d="M 885.9166471849995,863.0989047924124 L 886.0639654825887,924.7487287769072 A 445.25,445.25 0 0,0 1176.2484703774805,816.2816666666668 L 1346.65,816.2816666666668 L 1760.1102799479168,816.2816666666668"/><text x="1876.2816666666668" y="816.2816666666668" style="font-color:black;font-weight:normal" text-anchor="end">Homo sapiens&#160;&#160;&#160;0.05%</text><path class="wedge" fill="rgb(111,207,207)" d=" M 885.0618760105829,567.499978246357 L 885.2697231552226,863.0999051738928 A 383.6,383.6 0 0,1 885.0082149191095,863.0999999120374 L 885.0018845487008,567.4999999798209 A 88,88 0 0 0 885.0618760105829,567.499978246357 Z "/><path class="wedge" fill="rgb(111,207,207)" d=" M 885.0618760105829,567.499978246357 L 885.2697231552226,863.0999051738928 A 383.6,383.6 0 0,1 885.0082149191095,863.0999999120374 L 885.0018845487008,567.4999999798209 A 88,88 0 0 0 885.0618760105829,567.499978246357 Z "/><path class="wedge" fill="rgb(111,207,207)" d=" M 885.0618760105829,567.499978246357 L 885.2697231552226,863.0999051738928 A 383.6,383.6 0 0,1 885.0082149191095,863.0999999120374 L 885.0018845487008,567.4999999798209 A 88,88 0 0 0 885.0618760105829,567.499978246357 Z "/><rect fill="rgb(111,207,207)" x="1883.615" y="834.615" width="22" height="22"/><path class="line" d="M 885.1389690452393,863.0999748274294 L 885.1637849461748,931.5999703323275 A 452.1,452.1 0 0,0 1150.2436931860964,845.615 L 1335.65,845.615 L 1739.3295182291668,845.615"/><text x="1876.2816666666668" y="845.615" style="font-color:black;font-weight:normal" text-anchor="end">synthetic construct&#160;&#160;&#160;0.01%</text><path class="wedge" fill="rgb(111,111,207)" d=" M 885.0018845487008,567.4999999798209 L 885.0082149191095,863.0999999120374 A 383.6,383.6 0 0,1 885.0054766127399,863.0999999609055 L 885.0012563658006,567.4999999910315 A 88,88 0 0 0 885.0018845487008,567.4999999798209 Z "/><path class="wedge" fill="rgb(111,111,207)" d=" M 885.0018845487008,567.4999999798209 L 885.0082149191095,863.0999999120374 A 383.6,383.6 0 0,1 885.0054766127399,863.0999999609055 L 885.0012563658006,567.4999999910315 A 88,88 0 0 0 885.0018845487008,567.4999999798209 Z "/><path class="wedge" fill="rgb(111,111,207)" d=" M 885.0018845487008,567.4999999798209 L 885.0082149191095,863.0999999120374 A 383.6,383.6 0 0,1 885.0054766127399,863.0999999609055 L 885.0012563658006,567.4999999910315 A 88,88 0 0 0 885.0018845487008,567.4999999798209 Z "/><path class="wedge" fill="rgb(111,111,207)" d=" M 885.0018845487008,567.4999999798209 L 885.0082149191095,863.0999999120374 A 383.6,383.6 0 0,1 885.0054766127399,863.0999999609055 L 885.0012563658006,567.4999999910315 A 88,88 0 0 0 885.0018845487008,567.4999999798209 Z "/><path class="wedge" fill="rgb(111,111,207)" d=" M 885.0018845487008,567.4999999798209 L 885.0082149191095,863.0999999120374 A 383.6,383.6 0 0,1 885.0054766127399,863.0999999609055 L 885.0012563658006,567.4999999910315 A 88,88 0 0 0 885.0018845487008,567.4999999798209 Z "/><path class="wedge" fill="rgb(111,111,207)" d=" M 885.0018845487008,567.4999999798209 L 885.0082149191095,863.0999999120374 A 383.6,383.6 0 0,1 885.0054766127399,863.0999999609055 L 885.0012563658006,567.4999999910315 A 88,88 0 0 0 885.0018845487008,567.4999999798209 Z "/><path class="wedge" fill="rgb(111,111,207)" d=" M 885.0018845487008,567.4999999798209 L 885.0082149191095,863.0999999120374 A 383.6,383.6 0 0,1 885.0054766127399,863.0999999609055 L 885.0012563658006,567.4999999910315 A 88,88 0 0 0 885.0018845487008,567.4999999798209 Z "/><path class="wedge" fill="url(#hiddenPattern)" d=" M 885.0018845487008,567.4999999798209 L 885.0082149191095,863.0999999120374 A 383.6,383.6 0 0,1 885.0054766127399,863.0999999609055 L 885.0012563658006,567.4999999910315 A 88,88 0 0 0 885.0018845487008,567.4999999798209 Z "/><rect fill="rgb(111,111,207)" x="1883.615" y="863.9483333333334" width="22" height="22"/><rect fill="url(#hiddenPattern)" style="stroke:none" x="1883.615" y="863.9483333333334" width="22" height="22"/><path class="line" d="M 885.0068457659247,863.0999999389148 L 885.0081904699456,938.449999926916 A 458.95,458.95 0 0,0 1117.9285688014436,874.9483333333335 L 1324.65,874.9483333333334 L 1757.6503190104168,874.9483333333334"/><text x="1876.2816666666668" y="874.9483333333334" style="font-color:black;font-weight:normal" text-anchor="end">Siphoviridae&#160;&#160;&#160;0.0001%</text><path class="wedge" fill="rgb(207,111,207)" d=" M 885.0012563658006,567.4999999910315 L 885.0054766127399,863.0999999609055 A 383.6,383.6 0 0,1 885.004107459555,863.0999999780094 L 885.0009422743505,567.4999999949553 A 88,88 0 0 0 885.0012563658006,567.4999999910315 Z "/><path class="wedge" fill="rgb(207,111,207)" d=" M 885.0012563658006,567.4999999910315 L 885.0054766127399,863.0999999609055 A 383.6,383.6 0 0,1 885.004107459555,863.0999999780094 L 885.0009422743505,567.4999999949553 A 88,88 0 0 0 885.0012563658006,567.4999999910315 Z "/><path class="wedge" fill="rgb(207,111,207)" d=" M 885.0012563658006,567.4999999910315 L 885.0054766127399,863.0999999609055 A 383.6,383.6 0 0,1 885.004107459555,863.0999999780094 L 885.0009422743505,567.4999999949553 A 88,88 0 0 0 885.0012563658006,567.4999999910315 Z "/><path class="wedge" fill="rgb(207,111,207)" d=" M 885.0012563658006,567.4999999910315 L 885.0054766127399,863.0999999609055 A 383.6,383.6 0 0,1 885.004107459555,863.0999999780094 L 885.0009422743505,567.4999999949553 A 88,88 0 0 0 885.0012563658006,567.4999999910315 Z "/><path class="wedge" fill="rgb(207,111,207)" d=" M 885.0012563658006,567.4999999910315 L 885.0054766127399,863.0999999609055 A 383.6,383.6 0 0,1 885.004107459555,863.0999999780094 L 885.0009422743505,567.4999999949553 A 88,88 0 0 0 885.0012563658006,567.4999999910315 Z "/><path class="wedge" fill="rgb(207,111,207)" d=" M 885.0012563658006,567.4999999910315 L 885.0054766127399,863.0999999609055 A 383.6,383.6 0 0,1 885.004107459555,863.0999999780094 L 885.0009422743505,567.4999999949553 A 88,88 0 0 0 885.0012563658006,567.4999999910315 Z "/><path class="wedge" fill="rgb(207,111,207)" d=" M 885.0012563658006,567.4999999910315 L 885.0054766127399,863.0999999609055 A 383.6,383.6 0 0,1 885.004107459555,863.0999999780094 L 885.0009422743505,567.4999999949553 A 88,88 0 0 0 885.0012563658006,567.4999999910315 Z "/><path class="wedge" fill="rgb(207,111,207)" d=" M 885.0012563658006,567.4999999910315 L 885.0054766127399,863.0999999609055 A 383.6,383.6 0 0,1 885.004107459555,863.0999999780094 L 885.0009422743505,567.4999999949553 A 88,88 0 0 0 885.0012563658006,567.4999999910315 Z "/><rect fill="rgb(207,111,207)" x="1883.615" y="893.2816666666668" width="22" height="22"/><path class="line" d="M 885.0047920361473,863.0999999700683 L 885.0058189010359,945.2999999636543 A 465.8,465.8 0 0,0 1076.128688751555,904.2816666666668 L 1313.65,904.2816666666668 L 1718.5165299479168,904.2816666666668"/><text x="1876.2816666666668" y="904.2816666666668" style="font-color:black;font-weight:normal" text-anchor="end">Haloferax gibbonsii&#160;&#160;&#160;0.00006%</text><circle cx="885" cy="479.5" r="88"/><circle cx="885" cy="479.5" r="383.6"/><text x="885" y="479.5" text-anchor="middle" style="font-color:black;font-weight:bold" transform="rotate(360,885,479.5)">Root</text><rect fill="rgb(220,220,220)" x="1883.615" y="922.615" width="22" height="22"/><path class="line" d="M 885.0020537297773,863.0999999945024 L 885.0025304884757,952.1499999932262 A 472.65000000000003,472.65000000000003 0 0,0 1016.0633025488064,933.615 L 1302.65,933.615 L 1760.7118424479168,933.615"/><text x="1876.2816666666668" y="933.615" style="font-color:black;font-weight:normal" text-anchor="end">[other Root]&#160;&#160;&#160;0.0002%</text><path class="line" d=" M 886.0236009525574,567.4940466229956 A 88,88 0 1 0 885,567.5"/><line x1="889.4619696068302" y1="863.0740486884217" x2="886.0236009525574" y2="567.4940466229956"/><text x="885" y="360.733416089173" text-anchor="middle" style="font-color:black;font-weight:normal" transform="rotate(359.66676513025595,885,479.5)">Bacteria</text><path class="line" d=" M 886.7815049539091,629.0225552178605 A 149.53316782165402,149.53316782165402 0 1 0 885,629.033167821654"/><line x1="889.5701252121844" y1="863.0727753054757" x2="886.7815049539091" y2="629.0225552178605"/><text x="885" y="316.6562802693852" text-anchor="middle" style="font-color:black;font-weight:normal" transform="rotate(359.65868732887213,885,479.5)">Terrabacteria group</text><line x1="889.6262564596262" y1="863.0721024151389" x2="887.3384746421534" y2="673.3875725466651"/><path class="line" d=" M 887.3384746421534,673.3875725466651 A 193.90167418485663,193.90167418485663 0 1 0 885,673.4016741848566"/><text x="885" y="275.55625249890613" text-anchor="middle" style="font-color:black;font-weight:normal" transform="rotate(359.6544950522046,885,479.5)">Actinobacteria</text><path class="line" d=" M 887.8127693219683,706.8578534115281 A 227.37525190564725,227.37525190564725 0 1 0 885,706.8752519056472"/><line x1="889.745363898947" y1="863.070647366905" x2="887.8127693219683" y2="706.8578534115281"/><text x="885" y="239.05577329612436" text-anchor="middle" style="font-color:black;font-weight:normal" transform="rotate(359.6455992456174,885,479.5)">Corynebacteriales</text><path class="line" d=" M 888.1496831864014,732.9936346965575 A 253.51320150210404,253.51320150210404 0 1 0 885,733.013201502104"/><line x1="889.765899618421" y1="863.070392758392" x2="888.1496831864014" y2="732.9936346965575"/><text x="885" y="215.50266189597733" text-anchor="middle" style="font-color:black;font-weight:normal" transform="rotate(359.644065485861,885,479.5)">Mycobacteriaceae</text><path class="line" d=" M 888.4180327957961,753.9601920289265 A 274.4814747059414,274.4814747059414 0 1 0 885,753.9814747059414"/><line x1="889.7768519965584" y1="863.0702565176332" x2="888.4180327957961" y2="753.9601920289265"/><text x="885" y="196.42330887904365" text-anchor="middle" style="font-color:black;font-weight:normal" transform="rotate(359.64324748065764,885,479.5)">Mycobacterium</text><path class="line" d=" M 888.977696281391,771.1447832174701 A 291.6719075359713,291.6719075359713 0 1 0 885,771.1719075359713"/><line x1="890.2313721483562" y1="863.0643267373093" x2="888.977696281391" y2="771.1447832174701"/><text x="885" y="180.6545822796864" text-anchor="middle" style="font-color:black;font-weight:normal" transform="rotate(359.60930026471556,885,479.5)">Mycobacterium tuberculosis complex</text><path class="line" d=" M 1136.5201553252698,653.8134983329379 A 306.01892790465587,306.01892790465587 0 1 0 885,785.5189279046558"/><line x1="1200.2848493503448" y1="698.0049742457373" x2="1136.5201553252698" y2="653.8134983329379"/><path class="line" d=" M 570.2052465170696,433.2591314264937 A 318.17283785202534,318.17283785202534 0 0 0 885,797.6728378520254"/><line x1="505.47273346377693" y1="423.75043537799877" x2="570.2052465170696" y2="433.2591314264937"/><text x="534.1135810739872" y="479.5" text-anchor="end" style="font-color:black;font-weight:normal" transform="rotate(-40.82173167157092,885,479.5)">Mycobacterium tuberculosis variant africanum&#160;&#160;&#160;27%</text><path class="line" d=" M 970.8078194966552,173.11629798561307 A 318.17283785202534,318.17283785202534 0 0 0 570.2052465170696,433.2591314264937"/><line x1="988.4528270267537" y1="110.1133833228759" x2="970.8078194966552" y2="173.11629798561307"/><text x="534.1135810739872" y="479.5" text-anchor="end" style="font-color:black;font-weight:normal" transform="rotate(57.00115884070484,885,479.5)">Mycobacterium tuberculosis variant bovis&#160;&#160;&#160;27%</text><path class="line" d=" M 889.1733547870444,785.4904693707574 A 306.01892790465587,306.01892790465587 0 0 0 1136.5201553252698,653.8134983329379"/><text x="1229.8094639523279" y="479.5" text-anchor="start" style="font-color:black;font-weight:normal" transform="rotate(421.9710517047455,885,479.5)">15%&#160;&#160;&#160;Mycobacterium canettii</text><path class="line" d=" M 888.8194721105981,771.1468982836411 A 291.6719075359713,291.6719075359713 0 0 0 888.977696281391,771.1447832174701"/><line x1="890.0232794580833" y1="863.0671084223542" x2="888.8194721105981" y2="771.1468982836411"/><path class="line" d=" M 888.4101959217015,753.9602895147566 A 274.4814747059414,274.4814747059414 0 0 0 888.4180327957961,753.9601920289265"/><path class="line" d=" M 888.1361115597355,732.9938029619882 A 253.51320150210404,253.51320150210404 0 0 0 888.1496831864014,732.9936346965575"/><path class="line" d=" M 887.7421695200408,706.858715877531 A 227.37525190564725,227.37525190564725 0 0 0 887.8127693219683,706.8578534115281"/><path class="line" d=" M 887.3101014856021,673.3879126784765 A 193.90167418485663,193.90167418485663 0 0 0 887.3384746421534,673.3875725466651"/><path class="line" d=" M 886.739344238877,629.0230516020779 A 149.53316782165402,149.53316782165402 0 0 0 886.7815049539091,629.0225552178605"/><path class="line" d=" M 885.3586914428525,567.4992689767865 A 88,88 0 0 0 886.0236009525574,567.4940466229956"/><line x1="886.5635686077071" y1="863.0968134033559" x2="885.3586914428525" y2="567.4992689767865"/><line x1="885.2697231552226" y1="863.0999051738928" x2="885.0618760105829" y2="567.499978246357"/><path class="line" d=" M 885.0618760105829,567.499978246357 A 88,88 0 0 0 885.3586914428525,567.4992689767865"/><line x1="885.0082149191095" y1="863.0999999120374" x2="885.0018845487008" y2="567.4999999798209"/><path class="line" d=" M 885.0018845487008,567.4999999798209 A 88,88 0 0 0 885.0618760105829,567.499978246357"/><line x1="885.0054766127399" y1="863.0999999609055" x2="885.0012563658006" y2="567.4999999910315"/><path class="line" d=" M 885.0012563658006,567.4999999910315 A 88,88 0 0 0 885.0018845487008,567.4999999798209"/><line x1="885.004107459555" y1="863.0999999780094" x2="885.0009422743505" y2="567.4999999949553"/><path class="line" d=" M 885.0009422743505,567.4999999949553 A 88,88 0 0 0 885.0012563658006,567.4999999910315"/></svg>